<?xml version="1.0" encoding="iso-8859-1"?>
<!-- Generator: Adobe Illustrator 19.0.0, SVG Export Plug-In . SVG Version: 6.00 Build 0)  -->
<svg version="1.1" id="Capa_1" xmlns="http://www.w3.org/2000/svg" xmlns:xlink="http://www.w3.org/1999/xlink" x="0px" y="0px"
	 viewBox="0 0 512 512" style="enable-background:new 0 0 512 512;" xml:space="preserve">
<polygon style="fill:#FF6126;" points="512,30 512,136 196,196 256,30 "/>
<polygon style="fill:#FF8151;" points="256,30 256,196 0,136 0,30 "/>
<polygon style="fill:#CFE0E3;" points="512,136 512,512 256,512 146,324 256,136 "/>
<g>
	<rect y="136" style="fill:#DBFFFA;" width="256" height="376"/>
	<polygon style="fill:#DBFFFA;" points="482,166 482,482 256,482 158.891,324 256,166 	"/>
</g>
<rect x="30" y="166" style="fill:#FFFFFF;" width="226" height="316"/>
<g>
	<rect x="78.4" style="fill:#CFE0E3;" width="30" height="90"/>
	<rect x="186.8" style="fill:#CFE0E3;" width="30" height="90"/>
</g>
<g>
	<rect x="295.2" style="fill:#A0C1C6;" width="30" height="90"/>
	<rect x="403.6" style="fill:#A0C1C6;" width="30" height="90"/>
</g>
<polygon style="fill:#60B2FC;" points="452,196 452,226 256,226 237.657,211 256,196 "/>
<rect x="60" y="196" style="fill:#94E3F9;" width="196" height="30"/>
<polygon style="fill:#5386FC;" points="452,256 354,256 212.685,354 256,452 354,452 452,354 "/>
<polygon style="fill:#60B2FC;" points="354,256 354,354 212.685,354 256,256 "/>
<polygon style="fill:#7ACBFA;" points="256,256 158,256 60,354 60,452 158,452 256,354 "/>
<rect x="158" y="354" style="fill:#60B2FC;" width="98" height="98"/>
<rect x="60" y="256" style="fill:#94E3F9;" width="98" height="98"/>
<rect x="354" y="354" style="fill:#3965CC;" width="98" height="98"/>
<g>
</g>
<g>
</g>
<g>
</g>
<g>
</g>
<g>
</g>
<g>
</g>
<g>
</g>
<g>
</g>
<g>
</g>
<g>
</g>
<g>
</g>
<g>
</g>
<g>
</g>
<g>
</g>
<g>
</g>
</svg>
